<svg xmlns="http://www.w3.org/2000/svg" width="118.719" height="96.406" viewBox="0 0 118.719 96.406">
  <defs>
    <style>
      .cls-1 {
        fill: #e51919;
        fill-rule: evenodd;
      }
    </style>
  </defs>
  <path id="_" data-name="" class="cls-1" d="M203.4,233.146a23.624,23.624,0,0,0,10.7-13.41,47.717,47.717,0,0,1-15.443,5.876,24.343,24.343,0,0,0-42.113,16.649,27.014,27.014,0,0,0,.6,5.575,67.8,67.8,0,0,1-27.987-7.5,68.941,68.941,0,0,1-22.186-17.967,24.388,24.388,0,0,0-.377,23.881,24.29,24.29,0,0,0,7.911,8.663,24.123,24.123,0,0,1-11-3.088v0.3a23.5,23.5,0,0,0,5.537,15.481,23.935,23.935,0,0,0,13.974,8.4,25.147,25.147,0,0,1-6.4.829,30.7,30.7,0,0,1-4.595-.377,24.384,24.384,0,0,0,22.751,16.875,47.641,47.641,0,0,1-30.21,10.4,52.045,52.045,0,0,1-5.876-.3,67.568,67.568,0,0,0,37.366,10.924,71.125,71.125,0,0,0,24.334-4.106c3.573-1.29,3.745-.807,13.621,1.749,3.277-8.475,2.973-10.318,5.815-12.748a73.586,73.586,0,0,0,13.9-15.858,70.652,70.652,0,0,0,8.7-18.721,69.136,69.136,0,0,0,2.863-19.549q0-2.109-.075-3.164a50.983,50.983,0,0,0,12.2-12.581,48.482,48.482,0,0,1-14.012,3.767h0Z" transform="translate(-98.688 -217.938)"/>
</svg>
